<svg width="48" height="48" viewBox="0 0 48 48" fill="none" xmlns="http://www.w3.org/2000/svg">
<rect width="48" height="48" rx="8" fill="#8234E9"/>
<path d="M18.9055 27.4943V19.9091H21.9908V33H18.9993V30.6733H18.8629C18.5675 31.4062 18.0817 32.0057 17.4055 32.4716C16.7351 32.9375 15.9084 33.1705 14.9254 33.1705C14.0675 33.1705 13.3089 32.9801 12.6499 32.5994C11.9964 32.2131 11.4851 31.6534 11.1158 30.9205C10.7464 30.1818 10.5618 29.2898 10.5618 28.2443V19.9091H13.647V27.767C13.647 28.5966 13.8743 29.2557 14.3288 29.7443C14.7834 30.233 15.38 30.4773 16.1186 30.4773C16.5732 30.4773 17.0135 30.3665 17.4396 30.1449C17.8658 29.9233 18.2152 29.5938 18.4879 29.1562C18.7663 28.7131 18.9055 28.1591 18.9055 27.4943ZM25.2997 33V15.5455H31.8452C33.1861 15.5455 34.3111 15.7955 35.2202 16.2955C36.1349 16.7955 36.8253 17.483 37.2912 18.358C37.7628 19.2273 37.9986 20.2159 37.9986 21.3239C37.9986 22.4432 37.7628 23.4375 37.2912 24.3068C36.8196 25.1761 36.1236 25.8608 35.2031 26.3608C34.2827 26.8551 33.1491 27.1023 31.8026 27.1023H27.4645V24.5028H31.3764C32.1605 24.5028 32.8026 24.3665 33.3026 24.0938C33.8026 23.821 34.1719 23.446 34.4105 22.9688C34.6548 22.4915 34.777 21.9432 34.777 21.3239C34.777 20.7045 34.6548 20.1591 34.4105 19.6875C34.1719 19.2159 33.7997 18.8494 33.294 18.5881C32.794 18.321 32.1491 18.1875 31.3594 18.1875H28.4616V33H25.2997Z" fill="white"/>
</svg>
